<?xml version="1.0" standalone="no"?>
<!DOCTYPE svg PUBLIC "-//W3C//DTD SVG 20010904//EN"
 "http://www.w3.org/TR/2001/REC-SVG-20010904/DTD/svg10.dtd">
<svg version="1.0" xmlns="http://www.w3.org/2000/svg"
 width="512.000000pt" height="512.000000pt" viewBox="0 0 512.000000 512.000000"
 preserveAspectRatio="xMidYMid meet">

<g transform="translate(0.000000,512.000000) scale(0.100000,-0.100000)"
fill="#000000" stroke="none">
<path d="M212 2902 c-73 -928 -133 -1697 -132 -1709 l0 -23 1502 0 1502 0 644
-370 c355 -204 646 -369 648 -367 8 8 400 3514 394 3520 -8 7 -4372 637 -4410
637 -13 0 -35 -254 -148 -1688z m1398 712 l1 -316 -87 -82 c-48 -44 -100 -99
-116 -120 -15 -21 -28 -34 -28 -29 0 6 20 166 45 354 50 380 60 416 129 475
22 19 43 34 47 34 4 0 8 -142 9 -316z m1834 273 c24 -24 50 -63 59 -88 9 -24
35 -183 57 -354 22 -170 43 -328 46 -350 l7 -40 -40 50 c-42 54 -170 175 -184
175 -5 0 -9 146 -9 325 0 216 3 325 10 325 6 0 30 -19 54 -43z m-487 -463 c8
-22 -25 -200 -44 -239 -22 -43 -52 -74 -95 -96 -34 -17 -62 -19 -322 -19 -157
0 -296 4 -310 10 -48 18 -105 80 -120 130 -20 67 -40 196 -33 214 6 14 59 16
462 16 412 0 456 -2 462 -16z m-997 -78 c0 -22 32 -161 43 -188 22 -52 74
-106 131 -136 l51 -27 287 -3 c176 -2 302 1 325 7 62 17 131 67 163 118 31 49
40 74 60 176 l12 59 36 -7 c120 -22 274 -110 381 -218 98 -99 157 -197 202
-332 20 -63 23 -94 27 -305 4 -258 -6 -338 -62 -463 -103 -233 -323 -409 -578
-461 -108 -22 -967 -24 -1081 -2 -305 59 -546 285 -628 591 -19 70 -22 107
-22 300 -1 174 3 234 16 287 67 271 264 490 520 579 75 26 117 35 117 25z
m-714 -618 c-14 -77 -18 -378 -7 -472 7 -54 10 -100 7 -103 -10 -11 -77 20
-96 44 -19 24 -20 40 -20 255 0 253 3 267 65 294 49 22 58 18 51 -18z m2562 9
c47 -23 52 -50 52 -284 0 -197 -2 -221 -19 -249 -18 -30 -84 -64 -97 -51 -3 3
0 59 7 124 11 114 8 326 -7 437 -7 47 -7 48 17 42 13 -4 35 -12 47 -19z"/>
<path d="M2050 2819 c-137 -17 -266 -113 -333 -251 -49 -101 -60 -166 -55
-349 3 -131 6 -161 25 -201 30 -66 96 -133 162 -165 l56 -28 585 0 585 0 55
26 c80 37 125 81 162 157 32 65 33 70 36 217 5 231 -28 341 -142 462 -140 150
-331 178 -536 76 -82 -41 -102 -47 -156 -47 -54 0 -74 6 -142 42 -112 58 -190
74 -302 61z m109 -395 c112 -94 -11 -261 -136 -184 -66 40 -66 150 1 191 45
27 98 25 135 -7z m802 9 c29 -17 59 -67 59 -98 0 -32 -33 -86 -61 -100 -62
-32 -135 -10 -163 50 -50 104 65 207 165 148z m-668 -317 c9 -13 42 -37 73
-52 45 -22 69 -27 127 -27 86 1 138 20 188 69 39 38 81 44 87 12 5 -26 -63
-93 -121 -119 -44 -20 -68 -24 -157 -24 -91 0 -111 3 -150 24 -81 42 -138 110
-113 134 15 15 52 6 66 -17z"/>
</g>
</svg>
